<?xml version="1.0" encoding="utf-8"?>
<!-- Generator: Adobe Illustrator 19.2.0, SVG Export Plug-In . SVG Version: 6.00 Build 0)  -->
<svg version="1.1" id="Layer_1" xmlns="http://www.w3.org/2000/svg" xmlns:xlink="http://www.w3.org/1999/xlink" x="0px" y="0px"
	 viewBox="0 0 500 500" style="enable-background:new 0 0 500 500;" xml:space="preserve">
<style type="text/css">
	.st0{fill:#ECF4F7;}
	.st1{fill:#1C1D21;}
	.st2{fill:#83E1E5;}
	.st3{fill:#AAB1BA;}
	.st4{fill:none;stroke:#1C1D21;stroke-width:10;stroke-linecap:round;stroke-linejoin:round;stroke-miterlimit:10;}
	.st5{fill:#FDDF7F;}
	.st6{fill:#FFFFFF;}
</style>
<g>
	<g>
		<g>
			<path class="st0" d="M465,495H35c-16.6,0-30-13.4-30-30V93.6c0-16.6,13.4-30,30-30h430c16.6,0,30,13.4,30,30V465
				C495,481.6,481.6,495,465,495z"/>
		</g>
	</g>
	<g>
		<g>
			<path class="st2" d="M495,148.6v-55c0-16.6-13.4-30-30-30H35c-16.6,0-30,13.4-30,30v55H495z"/>
		</g>
	</g>
	<g>
		<g>
			<path class="st1" d="M5,219.3c-2.8,0-5-2.2-5-5v-13.7c0-2.8,2.2-5,5-5s5,2.2,5,5v13.7C10,217,7.8,219.3,5,219.3z"/>
		</g>
	</g>
	<g>
		<g>
			<path class="st1" d="M5,338.9c-2.8,0-5-2.2-5-5V241c0-2.8,2.2-5,5-5s5,2.2,5,5v92.9C10,336.6,7.8,338.9,5,338.9z"/>
		</g>
	</g>
	<g>
		<g>
			<path class="st1" d="M465,500H35c-19.3,0-35-15.7-35-35V363.3c0-2.8,2.2-5,5-5s5,2.2,5,5V465c0,13.8,11.2,25,25,25h430
				c13.8,0,25-11.2,25-25V93.6c0-13.8-11.2-25-25-25H35c-13.8,0-25,11.2-25,25V174c0,2.8-2.2,5-5,5s-5-2.2-5-5V93.6
				c0-19.3,15.7-35,35-35h430c19.3,0,35,15.7,35,35V465C500,484.3,484.3,500,465,500z"/>
		</g>
	</g>
	<g>
		<g>
			<path class="st1" d="M387,153.6H5c-2.8,0-5-2.2-5-5c0-2.8,2.2-5,5-5h382c2.8,0,5,2.2,5,5C392,151.4,389.8,153.6,387,153.6z"/>
		</g>
	</g>
	<g>
		<g>
			<path class="st1" d="M436.9,153.6h-22c-2.8,0-5-2.2-5-5c0-2.8,2.2-5,5-5h22c2.8,0,5,2.2,5,5C441.9,151.4,439.7,153.6,436.9,153.6
				z"/>
		</g>
	</g>
	<g>
		<g>
			<path class="st1" d="M460,153.6h-4.3c-2.8,0-5-2.2-5-5c0-2.8,2.2-5,5-5h4.3c2.8,0,5,2.2,5,5C465,151.4,462.8,153.6,460,153.6z"/>
		</g>
	</g>
	<g>
		<g>
			<g>
				<g>
					<path class="st5" d="M125.5,21.3L125.5,21.3c-13.8,0-25,11.2-25,25v34.7c0,13.8,11.2,25,25,25h0c13.8,0,25-11.2,25-25V46.3
						C150.5,32.5,139.3,21.3,125.5,21.3z"/>
				</g>
			</g>
			<g>
				<g>
					<path class="st1" d="M125.5,110.9c-16.5,0-30-13.5-30-30V46.3c0-16.5,13.5-30,30-30s30,13.5,30,30v34.7
						C155.5,97.5,142,110.9,125.5,110.9z M125.5,26.3c-11,0-20,9-20,20v34.7c0,11,9,20,20,20s20-9,20-20V46.3
						C145.5,35.2,136.5,26.3,125.5,26.3z"/>
				</g>
			</g>
		</g>
		<g>
			<g>
				<g>
					<path class="st5" d="M374.5,21.3L374.5,21.3c-13.8,0-25,11.2-25,25v34.7c0,13.8,11.2,25,25,25h0c13.8,0,25-11.2,25-25V46.3
						C399.5,32.5,388.3,21.3,374.5,21.3z"/>
				</g>
			</g>
			<g>
				<g>
					<path class="st1" d="M374.5,110.9c-16.5,0-30-13.5-30-30V46.3c0-16.5,13.5-30,30-30s30,13.5,30,30v34.7
						C404.5,97.5,391,110.9,374.5,110.9z M374.5,26.3c-11,0-20,9-20,20v34.7c0,11,9,20,20,20s20-9,20-20V46.3
						C394.5,35.2,385.5,26.3,374.5,26.3z"/>
				</g>
			</g>
		</g>
	</g>
	<g>
		<g>
			<g>
				<g>
					<circle class="st3" cx="163.8" cy="239.4" r="21.8"/>
				</g>
			</g>
			<g>
				<g>
					<circle class="st3" cx="250" cy="239.4" r="21.8"/>
				</g>
			</g>
			<g>
				<g>
					<circle class="st3" cx="336.2" cy="239.4" r="21.8"/>
				</g>
			</g>
			<g>
				<g>
					<circle class="st3" cx="422.3" cy="239.4" r="21.8"/>
				</g>
			</g>
		</g>
		<g>
			<g>
				<g>
					<circle class="st5" cx="77.7" cy="315.3" r="21.8"/>
				</g>
			</g>
			<g>
				<g>
					<circle class="st3" cx="163.8" cy="315.3" r="21.8"/>
				</g>
			</g>
			<g>
				<g>
					<circle class="st3" cx="250" cy="315.3" r="21.8"/>
				</g>
			</g>
			<g>
				<g>
					<circle class="st3" cx="336.2" cy="315.3" r="21.8"/>
				</g>
			</g>
			<g>
				<g>
					<circle class="st3" cx="422.3" cy="315.3" r="21.8"/>
				</g>
			</g>
		</g>
		<g>
			<g>
				<g>
					<circle class="st5" cx="77.7" cy="391.3" r="21.8"/>
				</g>
			</g>
			<g>
				<g>
					<circle class="st3" cx="163.8" cy="391.3" r="21.8"/>
				</g>
			</g>
			<g>
				<g>
					<circle class="st3" cx="250" cy="391.3" r="21.8"/>
				</g>
			</g>
			<g>
				<g>
					<circle class="st3" cx="336.2" cy="391.3" r="21.8"/>
				</g>
			</g>
		</g>
	</g>
	<g>
		<g>
			<g>
				<g>
					<path class="st1" d="M163.8,266.1c-14.8,0-26.8-12-26.8-26.8c0-14.8,12-26.8,26.8-26.8c14.8,0,26.8,12,26.8,26.8
						C190.6,254.1,178.6,266.1,163.8,266.1z M163.8,222.6c-9.2,0-16.8,7.5-16.8,16.8c0,9.2,7.5,16.8,16.8,16.8s16.8-7.5,16.8-16.8
						C180.6,230.1,173.1,222.6,163.8,222.6z"/>
				</g>
			</g>
			<g>
				<g>
					<path class="st1" d="M250,266.1c-14.8,0-26.8-12-26.8-26.8c0-14.8,12-26.8,26.8-26.8c14.8,0,26.8,12,26.8,26.8
						C276.8,254.1,264.8,266.1,250,266.1z M250,222.6c-9.2,0-16.8,7.5-16.8,16.8c0,9.2,7.5,16.8,16.8,16.8s16.8-7.5,16.8-16.8
						C266.8,230.1,259.2,222.6,250,222.6z"/>
				</g>
			</g>
			<g>
				<g>
					<path class="st1" d="M336.2,266.1c-14.8,0-26.8-12-26.8-26.8c0-14.8,12-26.8,26.8-26.8c14.8,0,26.8,12,26.8,26.8
						C362.9,254.1,350.9,266.1,336.2,266.1z M336.2,222.6c-9.2,0-16.8,7.5-16.8,16.8c0,9.2,7.5,16.8,16.8,16.8s16.8-7.5,16.8-16.8
						C352.9,230.1,345.4,222.6,336.2,222.6z"/>
				</g>
			</g>
			<g>
				<g>
					<path class="st1" d="M422.3,266.1c-14.8,0-26.8-12-26.8-26.8c0-14.8,12-26.8,26.8-26.8c14.8,0,26.8,12,26.8,26.8
						C449.1,254.1,437.1,266.1,422.3,266.1z M422.3,222.6c-9.2,0-16.8,7.5-16.8,16.8c0,9.2,7.5,16.8,16.8,16.8s16.8-7.5,16.8-16.8
						C439.1,230.1,431.5,222.6,422.3,222.6z"/>
				</g>
			</g>
		</g>
		<g>
			<g>
				<g>
					<path class="st1" d="M77.7,342.1c-14.8,0-26.8-12-26.8-26.8c0-14.8,12-26.8,26.8-26.8c14.8,0,26.8,12,26.8,26.8
						C104.4,330.1,92.4,342.1,77.7,342.1z M77.7,298.6c-9.2,0-16.8,7.5-16.8,16.8s7.5,16.8,16.8,16.8c9.2,0,16.8-7.5,16.8-16.8
						S86.9,298.6,77.7,298.6z"/>
				</g>
			</g>
			<g>
				<g>
					<path class="st1" d="M163.8,342.1c-14.8,0-26.8-12-26.8-26.8c0-14.8,12-26.8,26.8-26.8c14.8,0,26.8,12,26.8,26.8
						C190.6,330.1,178.6,342.1,163.8,342.1z M163.8,298.6c-9.2,0-16.8,7.5-16.8,16.8s7.5,16.8,16.8,16.8s16.8-7.5,16.8-16.8
						S173.1,298.6,163.8,298.6z"/>
				</g>
			</g>
			<g>
				<g>
					<path class="st1" d="M250,342.1c-14.8,0-26.8-12-26.8-26.8c0-14.8,12-26.8,26.8-26.8c14.8,0,26.8,12,26.8,26.8
						C276.8,330.1,264.8,342.1,250,342.1z M250,298.6c-9.2,0-16.8,7.5-16.8,16.8s7.5,16.8,16.8,16.8s16.8-7.5,16.8-16.8
						S259.2,298.6,250,298.6z"/>
				</g>
			</g>
			<g>
				<g>
					<path class="st1" d="M336.2,342.1c-14.8,0-26.8-12-26.8-26.8c0-14.8,12-26.8,26.8-26.8c14.8,0,26.8,12,26.8,26.8
						C362.9,330.1,350.9,342.1,336.2,342.1z M336.2,298.6c-9.2,0-16.8,7.5-16.8,16.8s7.5,16.8,16.8,16.8s16.8-7.5,16.8-16.8
						S345.4,298.6,336.2,298.6z"/>
				</g>
			</g>
			<g>
				<g>
					<path class="st1" d="M422.3,342.1c-14.8,0-26.8-12-26.8-26.8c0-14.8,12-26.8,26.8-26.8c14.8,0,26.8,12,26.8,26.8
						C449.1,330.1,437.1,342.1,422.3,342.1z M422.3,298.6c-9.2,0-16.8,7.5-16.8,16.8s7.5,16.8,16.8,16.8s16.8-7.5,16.8-16.8
						S431.5,298.6,422.3,298.6z"/>
				</g>
			</g>
		</g>
		<g>
			<g>
				<g>
					<path class="st1" d="M77.7,418.1c-14.8,0-26.8-12-26.8-26.8c0-14.8,12-26.8,26.8-26.8c14.8,0,26.8,12,26.8,26.8
						C104.4,406.1,92.4,418.1,77.7,418.1z M77.7,374.6c-9.2,0-16.8,7.5-16.8,16.8c0,9.2,7.5,16.8,16.8,16.8
						c9.2,0,16.8-7.5,16.8-16.8C94.4,382.1,86.9,374.6,77.7,374.6z"/>
				</g>
			</g>
			<g>
				<g>
					<path class="st1" d="M163.8,418.1c-14.8,0-26.8-12-26.8-26.8c0-14.8,12-26.8,26.8-26.8c14.8,0,26.8,12,26.8,26.8
						C190.6,406.1,178.6,418.1,163.8,418.1z M163.8,374.6c-9.2,0-16.8,7.5-16.8,16.8c0,9.2,7.5,16.8,16.8,16.8s16.8-7.5,16.8-16.8
						C180.6,382.1,173.1,374.6,163.8,374.6z"/>
				</g>
			</g>
			<g>
				<g>
					<path class="st1" d="M250,418.1c-14.8,0-26.8-12-26.8-26.8c0-14.8,12-26.8,26.8-26.8c14.8,0,26.8,12,26.8,26.8
						C276.8,406.1,264.8,418.1,250,418.1z M250,374.6c-9.2,0-16.8,7.5-16.8,16.8c0,9.2,7.5,16.8,16.8,16.8s16.8-7.5,16.8-16.8
						C266.8,382.1,259.2,374.6,250,374.6z"/>
				</g>
			</g>
			<g>
				<g>
					<path class="st1" d="M336.2,418.1c-14.8,0-26.8-12-26.8-26.8c0-14.8,12-26.8,26.8-26.8c14.8,0,26.8,12,26.8,26.8
						C362.9,406.1,350.9,418.1,336.2,418.1z M336.2,374.6c-9.2,0-16.8,7.5-16.8,16.8c0,9.2,7.5,16.8,16.8,16.8s16.8-7.5,16.8-16.8
						C352.9,382.1,345.4,374.6,336.2,374.6z"/>
				</g>
			</g>
		</g>
	</g>
</g>
</svg>
